<?xml version="1.0" standalone="no"?>
<!DOCTYPE svg PUBLIC "-//W3C//DTD SVG 20010904//EN"
 "http://www.w3.org/TR/2001/REC-SVG-20010904/DTD/svg10.dtd">
<svg version="1.0" xmlns="http://www.w3.org/2000/svg"
 width="1080.000000pt" height="1080.000000pt" viewBox="0 0 1080.000000 1080.000000"
 preserveAspectRatio="xMidYMid meet">

<g transform="translate(0.000000,1080.000000) scale(0.100000,-0.100000)"
fill="#000000" stroke="none">
<path d="M5155 9404 c-22 -2 -92 -9 -155 -15 -766 -72 -1537 -401 -2134 -911
-117 -100 -324 -306 -428 -427 -462 -533 -776 -1204 -892 -1901 -41 -247 -50
-368 -50 -655 0 -281 13 -435 55 -675 265 -1510 1407 -2735 2897 -3109 329
-82 590 -114 952 -114 362 0 623 32 952 114 714 179 1354 551 1868 1086 988
1028 1336 2512 909 3878 -151 482 -423 975 -748 1355 -102 120 -308 327 -426
429 -595 514 -1306 827 -2105 926 -118 15 -603 28 -695 19z m596 -239 c877
-84 1668 -464 2284 -1096 574 -590 914 -1300 1021 -2134 22 -171 29 -519 15
-700 -71 -904 -437 -1702 -1071 -2335 -606 -606 -1355 -963 -2230 -1061 -149
-17 -591 -17 -740 0 -660 74 -1248 295 -1760 661 -632 452 -1111 1093 -1355
1813 -200 590 -246 1233 -135 1857 161 895 666 1712 1408 2273 532 404 1176
655 1847 722 181 18 530 18 716 0z"/>
<path d="M5160 9094 c-19 -2 -84 -9 -144 -14 -852 -83 -1707 -518 -2283 -1161
-514 -575 -816 -1241 -909 -2009 -22 -177 -25 -609 -6 -775 101 -875 463
-1618 1083 -2220 769 -748 1829 -1109 2899 -989 798 90 1526 433 2099 989 619
602 982 1346 1083 2220 19 167 16 599 -6 775 -135 1112 -736 2060 -1678 2651
-437 273 -952 452 -1498 519 -86 11 -576 21 -640 14z m640 -109 c183 -23 338
-51 485 -90 1317 -345 2325 -1431 2564 -2761 53 -296 71 -696 42 -964 -91
-861 -452 -1606 -1059 -2191 -546 -526 -1207 -846 -1974 -955 -152 -21 -599
-30 -766 -15 -815 75 -1546 410 -2136 981 -471 456 -804 1037 -961 1675 -116
470 -131 985 -44 1469 167 929 717 1761 1514 2291 521 346 1070 529 1740 579
103 8 474 -4 595 -19z"/>
<path d="M5490 8754 c0 -5 -14 -137 -30 -293 -17 -156 -27 -287 -23 -291 9 -8
362 -45 367 -39 2 2 6 29 10 60 7 67 11 65 -111 74 -50 4 -95 10 -100 14 -6 4
-1 92 15 234 13 125 22 230 19 233 -9 9 -147 17 -147 8z"/>
<path d="M4860 8741 c-83 -26 -151 -82 -192 -161 -33 -64 -34 -214 -1 -280 66
-133 215 -202 368 -170 75 15 120 38 168 86 68 66 82 105 82 219 0 84 -4 107
-23 147 -32 64 -97 124 -160 148 -55 21 -190 27 -242 11z m204 -155 c140 -106
72 -326 -100 -326 -90 0 -161 68 -171 162 -8 80 27 142 102 183 45 24 124 15
169 -19z"/>
<path d="M6161 8630 c-145 -31 -248 -171 -239 -325 8 -122 68 -209 183 -262
51 -24 73 -28 150 -28 79 0 97 4 147 28 196 96 231 370 66 511 -74 64 -207 96
-307 76z m155 -139 c57 -26 96 -80 102 -142 12 -127 -96 -237 -205 -207 -81
22 -142 98 -143 179 0 56 45 135 93 164 50 30 97 31 153 6z"/>
<path d="M4310 8613 c-25 -9 -46 -17 -48 -18 -4 -4 168 -568 177 -577 10 -12
143 32 139 45 -3 7 -42 137 -89 290 -95 312 -82 294 -179 260z"/>
<path d="M3838 8427 c-62 -24 -126 -66 -153 -102 -94 -122 -85 -306 19 -422
59 -65 121 -95 210 -101 129 -8 242 54 295 160 27 54 31 72 31 145 0 101 -7
107 -85 67 -54 -29 -55 -30 -55 -74 0 -60 -35 -111 -95 -140 -55 -27 -108 -21
-159 18 -103 79 -107 221 -8 287 59 39 93 42 156 11 l54 -27 56 28 c63 31 69
47 29 85 -71 66 -209 96 -295 65z"/>
<path d="M6893 8290 c-140 -29 -241 -149 -251 -295 -8 -127 52 -230 170 -292
46 -24 64 -28 143 -28 74 0 98 4 138 23 50 25 137 105 137 125 -1 16 -248 172
-272 172 -11 0 -28 -16 -42 -40 l-24 -40 69 -45 c38 -25 69 -48 69 -52 0 -15
-66 -28 -98 -19 -129 37 -178 154 -112 267 31 55 73 87 128 99 77 16 182 -76
182 -160 0 -40 3 -44 55 -79 30 -20 61 -36 69 -36 18 0 26 31 26 106 0 74 -41
166 -98 215 -76 67 -194 99 -289 79z"/>
<path d="M3205 7987 c-69 -23 -100 -44 -152 -101 -62 -68 -83 -124 -83 -225 0
-86 24 -151 80 -215 85 -96 234 -126 363 -72 56 23 141 109 168 169 33 73 33
201 0 270 -31 64 -101 134 -159 159 -57 26 -162 33 -217 15z m159 -160 c22
-12 53 -39 70 -60 27 -34 31 -47 31 -97 0 -50 -4 -63 -31 -97 -43 -53 -85 -75
-143 -75 -57 0 -97 19 -139 66 -47 53 -59 105 -38 159 41 107 159 157 250 104z"/>
<path d="M7645 7969 c-27 -18 -52 -34 -55 -36 -9 -9 60 -63 80 -63 29 0 140
32 140 40 0 12 -89 90 -102 90 -7 0 -35 -14 -63 -31z"/>
<path d="M7485 7848 c-52 -57 -188 -200 -294 -310 l-65 -68 44 -45 c24 -25 52
-45 62 -45 10 0 60 44 111 97 50 54 133 140 184 193 50 52 100 107 111 121
l21 25 -49 42 c-27 23 -55 42 -63 42 -8 0 -36 -24 -62 -52z"/>
<path d="M7605 7417 c-159 -44 -292 -82 -294 -84 -7 -5 17 -45 52 -86 l32 -37
49 15 c27 8 53 15 57 15 6 0 112 -133 133 -167 4 -8 -6 -31 -23 -57 -17 -25
-31 -48 -31 -52 0 -15 81 -114 94 -114 13 0 336 528 336 550 0 6 -14 31 -30
56 -24 34 -37 44 -58 43 -15 0 -157 -37 -317 -82z m164 -156 c-24 -39 -47 -71
-50 -71 -8 0 -72 90 -67 95 6 6 153 52 157 49 1 -1 -17 -34 -40 -73z"/>
<path d="M2653 7409 c-108 -53 -172 -210 -129 -312 17 -41 66 -83 111 -96 65
-18 117 5 233 104 73 62 122 59 122 -8 0 -20 -11 -40 -35 -64 -32 -32 -40 -35
-74 -30 -38 5 -40 3 -75 -47 -20 -29 -36 -57 -36 -63 0 -19 67 -43 119 -43
114 0 215 101 236 236 15 91 -46 190 -131 213 -65 17 -121 -5 -219 -89 -66
-56 -97 -69 -120 -50 -24 20 -17 50 20 87 30 30 40 34 68 29 30 -5 34 -2 65
42 17 26 32 54 32 63 0 21 -62 49 -108 49 -20 0 -56 -9 -79 -21z"/>
<path d="M5443 7299 c-26 -9 -53 -57 -53 -94 0 -37 23 -86 54 -114 24 -23 26
-23 26 -5 0 10 2 57 4 103 5 102 0 122 -31 110z"/>
<path d="M5141 6966 c-15 -101 -14 -148 5 -226 31 -134 108 -214 244 -255 23
-7 24 -7 10 10 -14 17 -13 18 2 12 14 -5 16 -2 8 17 -5 13 -6 27 -2 31 4 3 5
47 4 97 -2 67 0 93 10 99 10 7 8 9 -6 9 -13 0 -17 5 -14 18 4 14 -12 27 -79
61 -91 47 -123 80 -152 157 l-18 47 -12 -77z"/>
<path d="M4735 6929 c-369 -35 -691 -147 -837 -290 -92 -90 -123 -156 -122
-264 0 -98 26 -158 95 -225 74 -72 141 -105 322 -159 353 -107 746 -147 1331
-138 671 10 982 76 1251 263 83 58 97 86 71 140 l-17 37 -52 -51 c-89 -87
-159 -111 -467 -159 -162 -25 -831 -25 -1130 0 -540 46 -769 91 -961 188 -140
70 -171 112 -150 204 7 29 26 74 43 100 72 108 269 218 518 288 291 83 269 75
230 75 -19 0 -75 -5 -125 -9z"/>
<path d="M5532 6909 c-8 -12 -9 -18 -4 -15 6 3 13 -1 16 -10 4 -11 2 -15 -8
-11 -33 13 12 -54 55 -82 49 -31 82 -65 124 -126 l27 -40 -5 52 c-3 28 -16 71
-28 95 -23 46 -131 158 -152 158 -7 0 -18 -9 -25 -21z"/>
<path d="M5240 6468 c0 -23 -6 -26 -102 -42 -196 -34 -718 -169 -718 -186 0
-4 24 -11 54 -14 44 -6 83 0 219 33 192 47 376 85 500 102 81 11 89 11 108 -7
16 -15 22 -16 29 -5 4 8 6 24 4 36 -5 31 17 38 60 20 37 -16 98 -19 129 -7 13
6 5 14 -40 42 -32 19 -62 33 -68 31 -5 -2 -32 -7 -60 -11 -41 -6 -56 -4 -82
12 l-33 20 0 -24z"/>
<path d="M5760 6446 l0 -46 48 0 c188 0 508 -72 605 -136 21 -14 45 -41 55
-60 16 -35 17 -35 62 -29 91 13 217 77 241 121 19 36 -4 60 -89 93 -158 61
-359 89 -694 98 l-228 6 0 -47z"/>
<path d="M4121 5928 c-35 -94 -15 -175 63 -253 142 -142 449 -224 965 -256
345 -22 933 18 1139 77 125 36 217 100 210 145 -4 34 -31 35 -107 5 -180 -70
-993 -87 -1445 -30 -248 31 -441 81 -637 163 -95 40 -122 66 -123 123 -1 39
-3 43 -28 46 -22 3 -30 -2 -37 -20z"/>
<path d="M5325 5794 c-303 -19 -497 -43 -593 -73 l-57 -18 60 -8 c33 -4 125
-5 205 -1 556 27 878 25 1153 -6 136 -16 275 -16 301 -1 41 23 -139 69 -364
93 -99 11 -601 21 -705 14z"/>
<path d="M4369 5469 c-48 -48 -62 -133 -33 -195 26 -54 83 -97 215 -162 136
-67 301 -118 485 -149 136 -23 605 -26 749 -5 180 26 469 93 518 120 67 36 77
89 23 113 -20 10 -36 7 -91 -15 -128 -51 -218 -61 -575 -60 -281 0 -348 3
-490 22 -298 40 -466 84 -647 167 -89 41 -113 77 -96 144 10 39 10 41 -13 41
-13 0 -33 -9 -45 -21z"/>
<path d="M5385 5344 c-16 -2 -79 -9 -140 -15 -114 -11 -284 -42 -332 -60 -22
-8 -24 -12 -13 -19 36 -22 117 -21 235 2 106 20 148 23 370 23 314 -1 414 -13
514 -61 83 -41 123 -42 209 -4 39 18 44 22 31 35 -35 34 -210 74 -418 95 -95
9 -386 12 -456 4z"/>
<path d="M4641 5004 c-19 -42 -13 -116 12 -164 58 -110 313 -185 672 -197 320
-11 654 32 756 98 30 19 49 38 49 50 0 24 -2 24 -89 -6 -111 -38 -215 -48
-461 -48 -346 0 -558 33 -723 110 -87 41 -127 80 -127 124 0 16 -2 29 -4 29
-2 0 -19 7 -38 15 -34 14 -36 13 -47 -11z"/>
<path d="M5394 4870 c-137 -11 -334 -36 -341 -44 -18 -17 28 -19 240 -8 221
12 379 8 592 -14 83 -9 175 3 175 22 0 7 -10 16 -22 19 -112 25 -467 39 -644
25z"/>
<path d="M4905 4619 c57 -109 220 -211 412 -256 115 -27 296 -25 388 5 114 36
109 40 -46 41 -284 2 -476 54 -592 159 -51 47 -70 56 -154 75 -22 5 -22 4 -8
-24z"/>
<path d="M4615 4481 c-18 -7 -15 -10 21 -29 46 -23 159 -46 195 -39 18 3 14 5
-11 6 -40 1 -140 45 -140 61 0 12 -36 12 -65 1z"/>
<path d="M6221 4476 c-17 -20 -74 -46 -124 -55 l-42 -9 40 -1 c51 -1 147 23
182 46 l26 17 -24 7 c-37 11 -46 10 -58 -5z"/>
<path d="M4400 4413 c-19 -6 -44 -12 -55 -12 -19 -1 -19 -1 0 -14 50 -34 123
-48 305 -57 193 -10 309 -27 404 -60 136 -46 246 -123 316 -218 45 -63 71 -80
29 -20 -80 115 -158 184 -277 242 -96 48 -171 64 -354 76 -184 12 -259 26
-301 54 -28 19 -36 20 -67 9z"/>
<path d="M6443 4409 c-30 -30 -128 -49 -304 -59 -192 -12 -254 -25 -364 -80
-119 -58 -241 -170 -284 -260 -11 -24 -11 -24 3 -5 90 116 147 167 249 221
119 62 335 104 541 104 45 0 109 5 141 11 63 11 135 37 135 48 0 3 -23 13 -50
22 -46 14 -50 14 -67 -2z"/>
<path d="M4888 4403 c12 -2 32 -2 45 0 12 2 2 4 -23 4 -25 0 -35 -2 -22 -4z"/>
<path d="M5983 4403 c15 -2 37 -2 50 0 12 2 0 4 -28 4 -27 0 -38 -2 -22 -4z"/>
<path d="M4968 4393 c6 -2 18 -2 25 0 6 3 1 5 -13 5 -14 0 -19 -2 -12 -5z"/>
<path d="M5913 4393 c9 -2 23 -2 30 0 6 3 -1 5 -18 5 -16 0 -22 -2 -12 -5z"/>
<path d="M5018 4383 c7 -3 16 -2 19 1 4 3 -2 6 -13 5 -11 0 -14 -3 -6 -6z"/>
<path d="M5868 4383 c7 -3 16 -2 19 1 4 3 -2 6 -13 5 -11 0 -14 -3 -6 -6z"/>
<path d="M5081 4366 c10 -9 69 -36 69 -32 0 6 -55 36 -66 36 -4 0 -5 -2 -3 -4z"/>
<path d="M4052 4221 c-73 -54 -134 -100 -136 -102 -2 -2 68 -5 157 -7 408 -7
834 -75 1201 -192 71 -22 135 -39 142 -38 23 6 -48 128 -117 202 -74 79 -161
135 -259 168 -61 21 -83 22 -395 23 -313 1 -333 2 -395 23 -36 12 -65 22 -65
22 0 -1 -60 -45 -133 -99z"/>
<path d="M6650 4296 c-51 -19 -78 -21 -380 -21 -358 -1 -374 -3 -500 -63 -100
-49 -211 -158 -264 -260 -21 -41 -36 -75 -34 -77 1 -1 59 15 128 36 398 124
760 185 1182 198 l207 6 -121 90 c-161 119 -152 116 -218 91z"/>
<path d="M3822 4029 c-23 -17 -42 -31 -42 -32 0 -1 152 -2 338 -3 280 -1 368
-5 521 -23 191 -23 394 -57 540 -92 46 -10 86 -18 88 -15 8 8 -338 87 -507
115 -232 39 -415 59 -662 71 -111 5 -210 10 -219 10 -8 0 -34 -14 -57 -31z"/>
<path d="M6620 4039 c-157 -13 -397 -45 -555 -74 -170 -32 -398 -85 -391 -92
2 -3 47 4 98 16 346 77 737 115 1126 109 122 -1 222 -2 222 -1 0 1 -17 14 -37
28 -37 24 -42 25 -198 24 -88 -1 -207 -6 -265 -10z"/>
<path d="M4303 3943 c9 -2 25 -2 35 0 9 3 1 5 -18 5 -19 0 -27 -2 -17 -5z"/>
<path d="M6563 3943 c9 -2 25 -2 35 0 9 3 1 5 -18 5 -19 0 -27 -2 -17 -5z"/>
<path d="M4520 3915 c360 -57 703 -135 856 -194 l76 -30 42 19 c146 62 497
144 886 205 l155 25 -110 -6 c-226 -10 -600 -68 -842 -130 l-133 -33 -132 33
c-243 62 -617 120 -843 130 l-110 6 155 -25z"/>
<path d="M2737 3835 c-53 -36 -97 -68 -97 -71 0 -3 5 -14 10 -25 10 -18 12
-18 51 8 44 29 43 29 74 -22 8 -13 17 -16 33 -11 l22 7 -22 41 c-23 40 -23 40
-3 54 21 16 25 13 65 -44 13 -19 17 -20 34 -7 18 14 17 17 -20 75 -22 33 -41
60 -44 60 -3 0 -49 -29 -103 -65z"/>
<path d="M5638 3863 c7 -3 16 -2 19 1 4 3 -2 6 -13 5 -11 0 -14 -3 -6 -6z"/>
<path d="M5288 3853 c7 -3 16 -2 19 1 4 3 -2 6 -13 5 -11 0 -14 -3 -6 -6z"/>
<path d="M7941 3842 c-8 -14 -1 -33 31 -86 22 -37 38 -69 35 -72 -2 -2 -37 3
-78 11 -73 16 -74 16 -92 -6 -10 -12 -14 -25 -10 -29 4 -3 45 -41 91 -85 77
-74 83 -78 99 -62 16 16 14 21 -42 77 -33 33 -53 60 -45 60 8 -1 44 -7 80 -15
36 -8 68 -14 73 -15 15 0 6 27 -32 90 -22 36 -38 66 -36 68 2 2 30 -10 64 -27
33 -17 67 -31 75 -31 12 0 26 20 26 36 0 7 -202 104 -216 104 -7 0 -18 -8 -23
-18z"/>
<path d="M2845 3673 c-66 -19 -122 -36 -124 -39 -11 -11 26 -35 50 -32 23 2
34 -5 57 -37 28 -37 29 -40 14 -63 -14 -21 -14 -25 5 -43 20 -20 20 -20 87 92
61 102 66 115 55 136 -7 13 -15 23 -18 22 -3 0 -60 -16 -126 -36z m65 -68
c-21 -34 -23 -35 -41 -19 -28 26 -23 39 19 50 20 6 39 9 41 8 2 -2 -7 -19 -19
-39z"/>
<path d="M7715 3543 c-25 -27 -45 -51 -45 -55 0 -8 166 -151 181 -157 6 -1 16
5 24 15 12 17 10 22 -18 45 -26 22 -29 29 -19 41 10 12 22 14 59 7 31 -6 50
-5 60 2 25 21 14 37 -31 43 -40 6 -44 10 -50 41 -8 41 -39 65 -83 65 -27 0
-42 -9 -78 -47z m104 -17 c13 -16 4 -43 -22 -64 -11 -9 -19 -6 -37 13 -23 24
-23 25 -5 45 21 23 48 26 64 6z"/>
<path d="M3014 3539 c-49 -14 -94 -71 -94 -120 0 -51 23 -95 60 -114 32 -17
87 -20 109 -6 24 15 -6 41 -45 41 -69 0 -99 76 -49 125 34 35 86 34 115 -2 14
-18 19 -35 15 -50 -6 -25 9 -63 25 -63 5 0 14 18 21 39 26 89 -65 176 -157
150z"/>
<path d="M7615 3408 c-59 -16 -95 -64 -95 -124 0 -116 135 -174 218 -93 44 43
51 89 23 147 l-22 45 -50 -49 c-43 -43 -47 -50 -34 -63 13 -13 17 -12 38 7 29
28 37 28 37 0 -1 -27 -17 -50 -47 -66 -32 -18 -48 -15 -82 14 -58 49 -31 134
42 134 21 0 41 8 52 20 10 11 16 20 14 20 -2 0 -18 4 -34 8 -17 5 -43 5 -60 0z"/>
<path d="M3174 3324 c-32 -37 -63 -76 -67 -88 -11 -29 0 -67 31 -98 21 -23 35
-28 71 -28 42 0 48 4 112 69 67 68 67 69 48 87 -20 18 -22 17 -81 -44 -66 -68
-96 -77 -122 -40 -9 12 -16 26 -16 31 0 5 28 38 62 73 50 53 60 68 52 81 -19
30 -30 24 -90 -43z"/>
<path d="M3335 3129 c-42 -50 -75 -94 -73 -99 4 -9 97 -90 105 -90 3 0 11 7
18 16 10 14 6 22 -24 49 l-35 33 50 58 c80 94 78 92 64 109 -7 8 -16 15 -20
15 -5 0 -43 -41 -85 -91z"/>
<path d="M7377 3203 c-15 -18 -14 -26 25 -138 23 -66 43 -122 45 -124 1 -2 12
4 22 13 15 14 18 23 11 42 -8 20 -4 28 28 54 40 33 45 34 71 20 14 -7 23 -5
35 9 17 18 13 21 -86 74 -132 71 -131 71 -151 50z m88 -70 c41 -19 42 -24 15
-48 -23 -21 -25 -21 -45 28 -18 43 -17 43 30 20z"/>
<path d="M3491 3123 c-8 -14 -4 -23 17 -39 l26 -22 -57 -75 c-31 -42 -57 -80
-57 -84 0 -5 8 -13 19 -20 16 -10 25 -2 77 68 32 43 60 79 62 79 2 0 15 -9 29
-20 24 -19 26 -19 39 -3 12 16 10 21 -19 46 -36 32 -113 87 -121 87 -3 0 -9
-8 -15 -17z"/>
<path d="M7267 3109 c-25 -14 -22 -22 28 -91 50 -69 58 -110 25 -128 -33 -18
-55 -4 -110 71 -49 69 -52 70 -70 54 -19 -17 -19 -19 21 -75 54 -77 80 -100
121 -106 29 -5 41 -1 70 25 40 35 52 68 39 105 -7 18 -85 132 -105 153 0 1 -9
-3 -19 -8z"/>
<path d="M3613 2907 c-56 -40 -102 -75 -102 -79 -1 -4 8 -12 19 -18 16 -8 25
-7 42 4 19 14 24 13 64 -14 32 -23 41 -35 37 -50 -6 -22 12 -50 31 -50 7 0 22
52 37 129 24 123 24 129 7 140 -10 6 -21 11 -25 10 -5 0 -54 -33 -110 -72z
m87 -47 c-11 -40 -12 -41 -33 -27 -12 8 -22 20 -22 26 0 11 56 53 63 47 2 -2
-2 -23 -8 -46z"/>
<path d="M6931 2885 c-39 -33 -46 -57 -27 -93 20 -39 35 -43 101 -29 42 8 58
8 67 -1 20 -20 -20 -55 -55 -48 -15 3 -36 0 -47 -6 -18 -11 -18 -14 -3 -30 9
-11 30 -18 50 -18 87 0 140 77 97 139 -17 23 -38 25 -139 9 -32 -5 -33 40 -1
48 14 3 30 3 35 -1 6 -3 20 -1 32 5 20 11 20 12 3 31 -25 27 -76 25 -113 -6z"/>
<path d="M3806 2791 c-31 -54 -56 -104 -56 -111 0 -6 30 -25 66 -42 59 -28 69
-30 103 -20 56 17 84 52 89 114 3 44 0 58 -18 81 -18 23 -106 77 -124 77 -3 0
-30 -45 -60 -99z m144 -10 c18 -35 11 -68 -21 -95 -36 -31 -38 -31 -83 -9
l-35 16 37 68 37 67 27 -14 c15 -8 32 -23 38 -33z"/>
<path d="M6778 2801 c-26 -15 -50 -30 -54 -33 -5 -6 87 -201 102 -217 6 -6
134 60 134 68 0 3 -5 13 -10 21 -8 12 -15 11 -54 -8 -44 -21 -46 -21 -56 -2
-15 29 -13 35 25 53 37 17 40 23 26 45 -7 12 -14 11 -39 -2 -40 -21 -49 -20
-62 4 -9 18 -6 22 34 42 38 18 43 24 35 40 -12 23 -24 22 -81 -11z"/>
<path d="M4107 2628 c-52 -128 -53 -122 36 -153 50 -17 59 -17 93 -4 47 18 84
69 84 116 0 58 -24 89 -94 122 -35 17 -66 31 -68 31 -3 0 -25 -51 -51 -112z
m117 31 c88 -41 26 -176 -64 -139 -35 14 -35 15 -14 66 9 22 20 49 25 62 10
25 18 27 53 11z"/>
<path d="M6533 2685 l-53 -24 36 -83 c20 -46 41 -95 46 -110 12 -33 21 -34 81
-8 90 40 124 124 78 194 -40 61 -101 71 -188 31z m136 -51 c31 -39 27 -77 -10
-108 -17 -14 -36 -26 -42 -26 -10 0 -27 33 -64 127 -6 15 30 31 69 32 17 1 34
-8 47 -25z"/>
<path d="M4385 2637 c-8 -20 -75 -221 -75 -223 0 -4 124 -44 136 -44 6 0 14 9
17 20 4 15 -3 22 -32 31 -47 15 -54 23 -46 49 5 17 12 20 28 16 64 -18 64 -18
70 3 4 17 -2 23 -34 32 -40 12 -46 23 -30 48 8 12 16 13 51 2 47 -14 47 -14
52 13 2 15 -10 23 -65 42 -49 17 -69 20 -72 11z"/>
<path d="M6335 2610 c-3 -6 -9 -66 -12 -135 -5 -103 -4 -125 8 -125 23 0 37
14 40 39 3 19 14 28 47 39 38 13 45 12 61 -2 18 -16 52 -21 64 -10 3 4 -31 51
-76 105 -79 94 -114 118 -132 89z m88 -130 c-4 -4 -18 -11 -30 -15 -22 -6 -23
-4 -23 42 l1 48 30 -34 c17 -18 27 -37 22 -41z"/>
<path d="M4612 2466 c-13 -57 -26 -113 -28 -124 -4 -15 0 -20 20 -24 27 -5 28
-3 41 61 7 33 8 33 49 27 22 -4 44 -10 48 -14 4 -4 2 -27 -4 -51 -11 -44 -3
-60 28 -61 8 0 65 212 64 243 0 4 -11 7 -24 7 -20 0 -25 -7 -35 -45 -11 -42
-13 -45 -39 -39 -69 15 -71 18 -53 82 8 25 7 32 -4 32 -7 0 -19 2 -27 5 -10 4
-19 -22 -36 -99z"/>
<path d="M6087 2545 c-27 -7 -50 -15 -52 -17 -5 -4 51 -227 58 -234 7 -7 99
17 129 34 81 46 70 181 -18 218 -40 17 -54 16 -117 -1z m107 -56 c52 -41 27
-127 -39 -132 -27 -2 -29 1 -46 66 l-17 68 21 9 c35 14 52 11 81 -11z"/>
<path d="M5934 2506 c-5 -12 13 -130 31 -213 5 -23 38 -32 49 -15 3 5 -4 61
-16 125 -18 100 -24 117 -40 117 -10 0 -21 -6 -24 -14z"/>
<path d="M4861 2435 c-16 -110 -14 -123 18 -156 23 -23 38 -29 71 -29 79 0 96
22 114 147 11 71 11 86 0 90 -30 11 -41 -6 -51 -81 -13 -87 -24 -106 -64 -106
-42 0 -52 26 -39 102 15 96 14 108 -14 108 -22 0 -24 -6 -35 -75z"/>
<path d="M5842 2501 c-10 -6 -11 -23 -4 -74 5 -37 5 -67 1 -67 -4 0 -33 29
-64 65 -32 36 -63 65 -69 65 -32 -1 -36 -15 -26 -101 19 -152 18 -149 46 -149
25 0 25 1 19 58 -4 31 -9 65 -11 75 -3 9 -3 17 -1 17 3 0 33 -29 68 -65 42
-44 70 -65 86 -65 21 0 23 3 18 33 -5 34 -25 196 -25 209 0 10 -22 10 -38 -1z"/>
<path d="M5125 2478 c-8 -26 -45 -209 -45 -223 0 -9 10 -15 24 -15 22 0 26 6
36 58 20 101 22 102 59 13 18 -45 35 -81 37 -81 1 0 22 37 46 81 l43 82 9 -81
c8 -73 11 -81 32 -85 13 -2 25 -3 27 -1 1 2 -3 54 -10 116 -6 62 -12 119 -13
126 0 8 -10 12 -27 10 -21 -2 -33 -15 -60 -68 -18 -36 -37 -66 -41 -68 -5 -1
-21 31 -37 73 -23 65 -30 75 -51 75 -14 0 -26 -6 -29 -12z"/>
<path d="M5515 2471 c-9 -16 -85 -230 -85 -241 0 -6 11 -10 25 -10 18 0 26 7
31 25 4 17 13 25 29 25 12 0 36 3 52 6 24 5 31 2 41 -20 8 -18 19 -26 37 -26
14 0 25 2 25 4 0 2 -24 58 -53 123 -41 90 -59 119 -74 121 -12 2 -24 -2 -28
-7z m48 -108 l15 -38 -30 -3 c-16 -2 -32 -2 -34 0 -6 6 19 78 27 78 4 0 14
-17 22 -37z"/>
</g>
</svg>
